<mxfile modified="2020-11-20T01:06:17.418Z" host="app.diagrams.net" agent="5.0 (Macintosh; Intel Mac OS X 10_13_6) AppleWebKit/605.1.15 (KHTML, like Gecko) Version/13.1.2 Safari/605.1.15" etag="BXVdf0Pd8sIodpDE-oVl" version="13.10.0" type="github">
  <diagram id="Ht1M8jgEwFfnCIfOTk4-" name="Page-1">
    <mxGraphModel dx="1577" dy="1065" grid="1" gridSize="10" guides="1" tooltips="1" connect="1" arrows="1" fold="1" page="1" pageScale="1" pageWidth="1169" pageHeight="827" math="0" shadow="0">
      <root>
        <mxCell id="0" />
        <mxCell id="1" parent="0" />
        <mxCell id="MkqSjX4Nkq8uwL33J9a--1" value="AWS Cloud" style="points=[[0,0],[0.25,0],[0.5,0],[0.75,0],[1,0],[1,0.25],[1,0.5],[1,0.75],[1,1],[0.75,1],[0.5,1],[0.25,1],[0,1],[0,0.75],[0,0.5],[0,0.25]];outlineConnect=0;gradientColor=none;html=1;whiteSpace=wrap;fontSize=12;fontStyle=0;shape=mxgraph.aws4.group;grIcon=mxgraph.aws4.group_aws_cloud_alt;strokeColor=#232F3E;fillColor=none;verticalAlign=top;align=left;spacingLeft=30;fontColor=#232F3E;dashed=0;" vertex="1" parent="1">
          <mxGeometry x="110" y="132" width="880" height="660" as="geometry" />
        </mxCell>
        <mxCell id="MkqSjX4Nkq8uwL33J9a--3" value="VPC" style="points=[[0,0],[0.25,0],[0.5,0],[0.75,0],[1,0],[1,0.25],[1,0.5],[1,0.75],[1,1],[0.75,1],[0.5,1],[0.25,1],[0,1],[0,0.75],[0,0.5],[0,0.25]];outlineConnect=0;gradientColor=none;html=1;whiteSpace=wrap;fontSize=12;fontStyle=0;shape=mxgraph.aws4.group;grIcon=mxgraph.aws4.group_vpc;strokeColor=#248814;fillColor=none;verticalAlign=top;align=left;spacingLeft=30;fontColor=#AAB7B8;dashed=0;" vertex="1" parent="1">
          <mxGeometry x="160" y="200" width="630" height="558" as="geometry" />
        </mxCell>
        <mxCell id="MkqSjX4Nkq8uwL33J9a--5" value="" style="outlineConnect=0;fontColor=#232F3E;gradientColor=#F78E04;gradientDirection=north;fillColor=#D05C17;strokeColor=#ffffff;dashed=0;verticalLabelPosition=bottom;verticalAlign=top;align=center;html=1;fontSize=12;fontStyle=0;aspect=fixed;shape=mxgraph.aws4.resourceIcon;resIcon=mxgraph.aws4.compute;" vertex="1" parent="1">
          <mxGeometry x="266" y="336" width="78" height="78" as="geometry" />
        </mxCell>
        <mxCell id="MkqSjX4Nkq8uwL33J9a--6" value="" style="outlineConnect=0;fontColor=#232F3E;gradientColor=#F78E04;gradientDirection=north;fillColor=#D05C17;strokeColor=#ffffff;dashed=0;verticalLabelPosition=bottom;verticalAlign=top;align=center;html=1;fontSize=12;fontStyle=0;aspect=fixed;shape=mxgraph.aws4.resourceIcon;resIcon=mxgraph.aws4.compute;" vertex="1" parent="1">
          <mxGeometry x="446" y="336" width="78" height="78" as="geometry" />
        </mxCell>
        <mxCell id="MkqSjX4Nkq8uwL33J9a--7" value="" style="outlineConnect=0;fontColor=#232F3E;gradientColor=#F78E04;gradientDirection=north;fillColor=#D05C17;strokeColor=#ffffff;dashed=0;verticalLabelPosition=bottom;verticalAlign=top;align=center;html=1;fontSize=12;fontStyle=0;aspect=fixed;shape=mxgraph.aws4.resourceIcon;resIcon=mxgraph.aws4.compute;" vertex="1" parent="1">
          <mxGeometry x="606" y="336" width="78" height="78" as="geometry" />
        </mxCell>
        <mxCell id="MkqSjX4Nkq8uwL33J9a--8" value="" style="outlineConnect=0;fontColor=#232F3E;gradientColor=#4D72F3;gradientDirection=north;fillColor=#3334B9;strokeColor=#ffffff;dashed=0;verticalLabelPosition=bottom;verticalAlign=top;align=center;html=1;fontSize=12;fontStyle=0;aspect=fixed;shape=mxgraph.aws4.resourceIcon;resIcon=mxgraph.aws4.rds;" vertex="1" parent="1">
          <mxGeometry x="300" y="630" width="78" height="78" as="geometry" />
        </mxCell>
        <mxCell id="MkqSjX4Nkq8uwL33J9a--9" value="" style="outlineConnect=0;fontColor=#232F3E;gradientColor=#F78E04;gradientDirection=north;fillColor=#D05C17;strokeColor=#ffffff;dashed=0;verticalLabelPosition=bottom;verticalAlign=top;align=center;html=1;fontSize=12;fontStyle=0;aspect=fixed;shape=mxgraph.aws4.resourceIcon;resIcon=mxgraph.aws4.compute;direction=west;" vertex="1" parent="1">
          <mxGeometry x="585" y="630" width="78" height="78" as="geometry" />
        </mxCell>
        <mxCell id="MkqSjX4Nkq8uwL33J9a--31" style="edgeStyle=orthogonalEdgeStyle;rounded=0;orthogonalLoop=1;jettySize=auto;html=1;" edge="1" parent="1" source="MkqSjX4Nkq8uwL33J9a--10">
          <mxGeometry relative="1" as="geometry">
            <mxPoint x="506" y="308.32" as="targetPoint" />
          </mxGeometry>
        </mxCell>
        <mxCell id="MkqSjX4Nkq8uwL33J9a--32" style="edgeStyle=orthogonalEdgeStyle;rounded=0;orthogonalLoop=1;jettySize=auto;html=1;entryX=0.356;entryY=0.012;entryDx=0;entryDy=0;entryPerimeter=0;" edge="1" parent="1" source="MkqSjX4Nkq8uwL33J9a--10">
          <mxGeometry relative="1" as="geometry">
            <mxPoint x="435.15200000000027" y="310.00000000000006" as="targetPoint" />
            <Array as="points">
              <mxPoint x="471" y="267.32" />
              <mxPoint x="435" y="267.32" />
            </Array>
          </mxGeometry>
        </mxCell>
        <mxCell id="MkqSjX4Nkq8uwL33J9a--10" value="" style="outlineConnect=0;fontColor=#232F3E;gradientColor=#945DF2;gradientDirection=north;fillColor=#5A30B5;strokeColor=#ffffff;dashed=0;verticalLabelPosition=bottom;verticalAlign=top;align=center;html=1;fontSize=12;fontStyle=0;aspect=fixed;shape=mxgraph.aws4.resourceIcon;resIcon=mxgraph.aws4.elastic_load_balancing;" vertex="1" parent="1">
          <mxGeometry x="432" y="148.32" width="78" height="78" as="geometry" />
        </mxCell>
        <mxCell id="MkqSjX4Nkq8uwL33J9a--12" value="" style="outlineConnect=0;fontColor=#232F3E;gradientColor=none;fillColor=#277116;strokeColor=none;dashed=0;verticalLabelPosition=bottom;verticalAlign=top;align=center;html=1;fontSize=12;fontStyle=0;aspect=fixed;pointerEvents=1;shape=mxgraph.aws4.bucket;" vertex="1" parent="1">
          <mxGeometry x="841.5" y="552" width="75" height="78" as="geometry" />
        </mxCell>
        <mxCell id="MkqSjX4Nkq8uwL33J9a--13" value="" style="outlineConnect=0;fontColor=#232F3E;gradientColor=#945DF2;gradientDirection=north;fillColor=#5A30B5;strokeColor=#ffffff;dashed=0;verticalLabelPosition=bottom;verticalAlign=top;align=center;html=1;fontSize=12;fontStyle=0;aspect=fixed;shape=mxgraph.aws4.resourceIcon;resIcon=mxgraph.aws4.elasticsearch_service;" vertex="1" parent="1">
          <mxGeometry x="840" y="362" width="78" height="78" as="geometry" />
        </mxCell>
        <mxCell id="MkqSjX4Nkq8uwL33J9a--14" value="" style="outlineConnect=0;fontColor=#232F3E;gradientColor=none;fillColor=#232F3E;strokeColor=none;dashed=0;verticalLabelPosition=bottom;verticalAlign=top;align=center;html=1;fontSize=12;fontStyle=0;aspect=fixed;pointerEvents=1;shape=mxgraph.aws4.users;" vertex="1" parent="1">
          <mxGeometry x="290" width="78" height="78" as="geometry" />
        </mxCell>
        <mxCell id="MkqSjX4Nkq8uwL33J9a--15" value="" style="outlineConnect=0;fontColor=#232F3E;gradientColor=none;fillColor=#232F3E;strokeColor=none;dashed=0;verticalLabelPosition=bottom;verticalAlign=top;align=center;html=1;fontSize=12;fontStyle=0;aspect=fixed;pointerEvents=1;shape=mxgraph.aws4.users;" vertex="1" parent="1">
          <mxGeometry x="542" y="2" width="78" height="78" as="geometry" />
        </mxCell>
        <mxCell id="MkqSjX4Nkq8uwL33J9a--16" value="" style="outlineConnect=0;fontColor=#232F3E;gradientColor=#4D72F3;gradientDirection=north;fillColor=#3334B9;strokeColor=#ffffff;dashed=0;verticalLabelPosition=bottom;verticalAlign=top;align=center;html=1;fontSize=12;fontStyle=0;aspect=fixed;shape=mxgraph.aws4.resourceIcon;resIcon=mxgraph.aws4.elasticache;" vertex="1" parent="1">
          <mxGeometry x="180" y="480" width="78" height="78" as="geometry" />
        </mxCell>
        <mxCell id="MkqSjX4Nkq8uwL33J9a--17" value="" style="outlineConnect=0;fontColor=#232F3E;gradientColor=#F78E04;gradientDirection=north;fillColor=#D05C17;strokeColor=#ffffff;dashed=0;verticalLabelPosition=bottom;verticalAlign=top;align=center;html=1;fontSize=12;fontStyle=0;aspect=fixed;shape=mxgraph.aws4.resourceIcon;resIcon=mxgraph.aws4.compute;" vertex="1" parent="1">
          <mxGeometry x="684" y="480" width="78" height="78" as="geometry" />
        </mxCell>
        <mxCell id="MkqSjX4Nkq8uwL33J9a--26" style="edgeStyle=orthogonalEdgeStyle;rounded=0;orthogonalLoop=1;jettySize=auto;html=1;exitX=0.25;exitY=1;exitDx=0;exitDy=0;" edge="1" parent="1" source="MkqSjX4Nkq8uwL33J9a--18" target="MkqSjX4Nkq8uwL33J9a--16">
          <mxGeometry relative="1" as="geometry" />
        </mxCell>
        <mxCell id="MkqSjX4Nkq8uwL33J9a--27" style="edgeStyle=orthogonalEdgeStyle;rounded=0;orthogonalLoop=1;jettySize=auto;html=1;exitX=0.75;exitY=1;exitDx=0;exitDy=0;" edge="1" parent="1" source="MkqSjX4Nkq8uwL33J9a--18" target="MkqSjX4Nkq8uwL33J9a--17">
          <mxGeometry relative="1" as="geometry" />
        </mxCell>
        <mxCell id="MkqSjX4Nkq8uwL33J9a--28" style="edgeStyle=orthogonalEdgeStyle;rounded=0;orthogonalLoop=1;jettySize=auto;html=1;exitX=0.5;exitY=1;exitDx=0;exitDy=0;" edge="1" parent="1" source="MkqSjX4Nkq8uwL33J9a--18" target="MkqSjX4Nkq8uwL33J9a--8">
          <mxGeometry relative="1" as="geometry" />
        </mxCell>
        <mxCell id="MkqSjX4Nkq8uwL33J9a--30" style="edgeStyle=orthogonalEdgeStyle;rounded=0;orthogonalLoop=1;jettySize=auto;html=1;exitX=0.5;exitY=1;exitDx=0;exitDy=0;" edge="1" parent="1" source="MkqSjX4Nkq8uwL33J9a--18" target="MkqSjX4Nkq8uwL33J9a--9">
          <mxGeometry relative="1" as="geometry" />
        </mxCell>
        <mxCell id="MkqSjX4Nkq8uwL33J9a--18" value="" style="fillColor=none;strokeColor=#5A6C86;dashed=1;verticalAlign=top;fontStyle=0;fontColor=#5A6C86;" vertex="1" parent="1">
          <mxGeometry x="238" y="310" width="492" height="140" as="geometry" />
        </mxCell>
        <mxCell id="MkqSjX4Nkq8uwL33J9a--19" value="RDS for MySQL&lt;br&gt;" style="text;html=1;align=center;verticalAlign=middle;resizable=0;points=[];autosize=1;" vertex="1" parent="1">
          <mxGeometry x="289" y="711" width="100" height="20" as="geometry" />
        </mxCell>
        <mxCell id="MkqSjX4Nkq8uwL33J9a--20" value="MongoDB" style="text;html=1;align=center;verticalAlign=middle;resizable=0;points=[];autosize=1;" vertex="1" parent="1">
          <mxGeometry x="546" y="712" width="70" height="20" as="geometry" />
        </mxCell>
        <mxCell id="MkqSjX4Nkq8uwL33J9a--21" value="Text" style="text;html=1;resizable=0;autosize=1;align=center;verticalAlign=middle;points=[];fillColor=none;strokeColor=none;rounded=0;" vertex="1" parent="1">
          <mxGeometry x="470" y="420" width="40" height="20" as="geometry" />
        </mxCell>
        <mxCell id="MkqSjX4Nkq8uwL33J9a--22" value="App Servers" style="text;html=1;resizable=0;autosize=1;align=center;verticalAlign=middle;points=[];fillColor=none;strokeColor=none;rounded=0;" vertex="1" parent="1">
          <mxGeometry x="420" y="316" width="80" height="20" as="geometry" />
        </mxCell>
        <mxCell id="MkqSjX4Nkq8uwL33J9a--23" value="Text" style="text;html=1;resizable=0;autosize=1;align=center;verticalAlign=middle;points=[];fillColor=none;strokeColor=none;rounded=0;" vertex="1" parent="1">
          <mxGeometry x="470" y="420" width="40" height="20" as="geometry" />
        </mxCell>
      </root>
    </mxGraphModel>
  </diagram>
</mxfile>
